<svg id="visual" viewBox="0 0 960 540" width="960" height="540" xmlns="http://www.w3.org/2000/svg" xmlns:xlink="http://www.w3.org/1999/xlink" version="1.1"><path d="M0 315L137 317L274 337L411 386L549 357L686 387L823 346L960 355L960 541L823 541L686 541L549 541L411 541L274 541L137 541L0 541Z" fill="#f5730a"></path><path d="M0 355L137 428L274 377L411 383L549 408L686 365L823 376L960 394L960 541L823 541L686 541L549 541L411 541L274 541L137 541L0 541Z" fill="#da5b09"></path><path d="M0 401L137 404L274 438L411 411L549 439L686 452L823 456L960 436L960 541L823 541L686 541L549 541L411 541L274 541L137 541L0 541Z" fill="#be4407"></path><path d="M0 438L137 476L274 463L411 455L549 463L686 461L823 439L960 479L960 541L823 541L686 541L549 541L411 541L274 541L137 541L0 541Z" fill="#a32d04"></path><path d="M0 499L137 499L274 481L411 508L549 504L686 492L823 472L960 484L960 541L823 541L686 541L549 541L411 541L274 541L137 541L0 541Z" fill="#871400"></path></svg>