<svg id="visual" viewBox="0 0 960 540" width="960" height="540" xmlns="http://www.w3.org/2000/svg" xmlns:xlink="http://www.w3.org/1999/xlink" version="1.1"><path d="M0 39L87 50L175 50L262 33L349 60L436 33L524 28L611 28L698 28L785 39L873 71L960 71L960 0L873 0L785 0L698 0L611 0L524 0L436 0L349 0L262 0L175 0L87 0L0 0Z" fill="#00cc8e"></path><path d="M0 206L87 104L175 163L262 206L349 147L436 114L524 120L611 206L698 141L785 93L873 222L960 260L960 69L873 69L785 37L698 26L611 26L524 26L436 31L349 58L262 31L175 48L87 48L0 37Z" fill="#00c38c"></path><path d="M0 239L87 120L175 190L262 249L349 217L436 141L524 141L611 266L698 195L785 147L873 249L960 320L960 258L873 220L785 91L698 139L611 204L524 118L436 112L349 145L262 204L175 161L87 102L0 204Z" fill="#00b98a"></path><path d="M0 255L87 168L175 217L262 266L349 239L436 158L524 168L611 276L698 228L785 195L873 282L960 336L960 318L873 247L785 145L698 193L611 264L524 139L436 139L349 215L262 247L175 188L87 118L0 237Z" fill="#00b087"></path><path d="M0 325L87 217L175 282L262 374L349 293L436 287L524 212L611 336L698 320L785 287L873 363L960 395L960 334L873 280L785 193L698 226L611 274L524 166L436 156L349 237L262 264L175 215L87 166L0 253Z" fill="#00a784"></path><path d="M0 449L87 395L175 379L262 428L349 433L436 438L524 411L611 406L698 401L785 460L873 406L960 438L960 393L873 361L785 285L698 318L611 334L524 210L436 285L349 291L262 372L175 280L87 215L0 323Z" fill="#009e80"></path><path d="M0 476L87 460L175 460L262 471L349 503L436 487L524 492L611 449L698 460L785 487L873 487L960 482L960 436L873 404L785 458L698 399L611 404L524 409L436 436L349 431L262 426L175 377L87 393L0 447Z" fill="#00957c"></path><path d="M0 498L87 492L175 492L262 525L349 519L436 498L524 514L611 498L698 509L785 519L873 519L960 530L960 480L873 485L785 485L698 458L611 447L524 490L436 485L349 501L262 469L175 458L87 458L0 474Z" fill="#008c78"></path><path d="M0 541L87 541L175 541L262 541L349 541L436 541L524 541L611 541L698 541L785 541L873 541L960 541L960 528L873 517L785 517L698 507L611 496L524 512L436 496L349 517L262 523L175 490L87 490L0 496Z" fill="#038373"></path></svg>